<svg width="25" height="25" viewBox="0 0 66 96" fill="none" xmlns="http://www.w3.org/2000/svg">
<path d="M56.8591 10.1015C50.5075 3.76174 42.0501 0.273441 33.0311 0.273441C23.9999 0.269534 15.5392 3.76174 9.19915 10.1015C-10.7698 30.0785 9.42962 60.9885 24.1792 83.5585C26.6597 87.3476 28.9995 90.9296 30.8784 94.0705C31.3276 94.8205 32.1478 95.2893 33.0267 95.2893C33.9056 95.2893 34.7259 94.8206 35.1751 94.0705C37.054 90.9299 39.3939 87.3517 41.8743 83.5585C56.6283 60.9885 76.8281 30.0785 56.8591 10.1015ZM47.1287 33.9295C47.1287 41.7107 40.8005 48.0315 33.0266 48.0315C25.2454 48.0315 18.9247 41.7112 18.9247 33.9295C18.9247 26.1478 25.2449 19.8275 33.0266 19.8275C40.8 19.8275 47.1287 26.1478 47.1287 33.9295Z" fill="#FBBC05"/>
</svg>
