<svg width="8" height="8" viewBox="0 0 8 8" fill="none" xmlns="http://www.w3.org/2000/svg">
<path fill-rule="evenodd" clip-rule="evenodd" d="M7.9756 3.5586C7.96042 3.43761 7.88542 3.33268 7.77604 3.27911L7.26529 3.02417C7.1818 2.98086 7.11751 2.90854 7.08493 2.82059C7.0635 2.76478 7.04028 2.70941 7.01573 2.65495C6.97599 2.56923 6.97019 2.47189 6.99876 2.38216L7.17957 1.84014C7.21931 1.72495 7.19832 1.5977 7.12332 1.50127C6.93893 1.27044 6.72955 1.06104 6.49874 0.876657C6.40275 0.802096 6.27552 0.780666 6.16033 0.820401L5.6179 1.00122C5.52816 1.03024 5.43084 1.02443 5.34512 0.9847C5.29065 0.960144 5.23529 0.936927 5.17949 0.915496C5.09154 0.882457 5.01922 0.818165 4.97591 0.735124L4.72054 0.224353H4.72098C4.66741 0.114521 4.5625 0.0395119 4.44151 0.024779C4.14819 -0.00825968 3.85174 -0.00825968 3.55842 0.024779C3.43743 0.0395131 3.33252 0.114521 3.27939 0.224353L3.02402 0.734667C2.98071 0.818157 2.90839 0.882453 2.82045 0.915039C2.76464 0.93647 2.70928 0.959687 2.65481 0.984242C2.5691 1.02398 2.47176 1.02978 2.38203 1.00121L1.84004 0.820391C1.72486 0.780654 1.59762 0.801639 1.50119 0.876647C1.27083 1.06104 1.06099 1.27043 0.876613 1.50126C0.802056 1.59725 0.780626 1.72449 0.82036 1.83968L1.00117 2.38214C1.03019 2.47189 1.02438 2.56921 0.98465 2.65494C0.960096 2.70941 0.93688 2.76477 0.91545 2.82058C0.882413 2.90853 0.818124 2.9813 0.735087 3.02416L0.224342 3.27955C0.114515 3.33268 0.0395099 3.4376 0.0247778 3.55859C-0.00825926 3.85192 -0.00825926 4.14839 0.0247778 4.44172C0.0395111 4.56272 0.114515 4.66764 0.224342 4.72121L0.735087 4.9766V4.97615C0.818126 5.01946 0.88242 5.09178 0.91545 5.17974C0.93688 5.23554 0.960094 5.29091 0.98465 5.34538C1.02438 5.4311 1.03019 5.52843 1.00117 5.61817L0.82036 6.16019C0.780625 6.27538 0.801609 6.40262 0.876613 6.49861C1.061 6.72943 1.27038 6.93928 1.50119 7.12368C1.59718 7.19824 1.72486 7.21967 1.8396 7.17993L2.38203 6.99912H2.38248C2.47222 6.97009 2.56954 6.9759 2.65481 7.01564C2.70928 7.04019 2.76464 7.06341 2.82045 7.08484H2.82089C2.90884 7.11743 2.98116 7.18172 3.02402 7.26521L3.27939 7.77598C3.33252 7.88537 3.43788 7.96082 3.55843 7.97556C3.85219 8.00815 4.14819 8.00815 4.44195 7.97556C4.5625 7.96082 4.66742 7.88537 4.72099 7.77598L4.97636 7.26521C5.01922 7.18172 5.09154 7.11742 5.17949 7.08484C5.23529 7.06341 5.29065 7.04019 5.34512 7.01564H5.34557C5.43084 6.9759 5.52817 6.97009 5.6179 6.99912L6.15989 7.17993C6.27507 7.21967 6.40231 7.19868 6.4983 7.12368C6.72911 6.93928 6.93895 6.72989 7.12333 6.49907C7.19789 6.40308 7.21932 6.27583 7.17958 6.16064L6.99878 5.61818C6.96976 5.52844 6.97556 5.43111 7.0153 5.34539C7.03985 5.29092 7.06307 5.23555 7.08449 5.17975C7.11709 5.09179 7.18138 5.01947 7.26486 4.97616L7.7756 4.72078V4.72122C7.88498 4.66765 7.96043 4.56273 7.97517 4.44173C8.0082 4.1484 8.00819 3.85194 7.9756 3.5586ZM3.99998 5.82889C3.51513 5.82889 3.04993 5.63601 2.70711 5.29312C2.3643 4.95023 2.17137 4.485 2.17137 4.00019C2.17137 3.51538 2.36424 3.0501 2.70711 2.70726C3.04999 2.36443 3.51519 2.17149 3.99998 2.17149C4.48477 2.17149 4.95002 2.36437 5.29284 2.70726C5.63566 3.05015 5.82858 3.51538 5.82858 4.00019C5.82858 4.485 5.63571 4.95028 5.29284 5.29312C4.94997 5.63595 4.48477 5.82889 3.99998 5.82889Z" fill="white"/>
</svg>
